<mxfile host="app.diagrams.net" agent="Mozilla/5.0 (Windows NT 10.0; Win64; x64) AppleWebKit/537.36 (KHTML, like Gecko) Chrome/127.0.0.0 Safari/537.36" version="24.7.7">
  <diagram name="Página-1" id="yKne85FFrRngjloVv0hx">
    <mxGraphModel dx="1354" dy="1735" grid="1" gridSize="10" guides="1" tooltips="1" connect="1" arrows="1" fold="1" page="1" pageScale="1" pageWidth="827" pageHeight="1169" math="0" shadow="0">
      <root>
        <mxCell id="0" />
        <mxCell id="1" parent="0" />
        <mxCell id="9OQMAJNurRfe3A98mxgL-37" value="" style="edgeStyle=none;rounded=0;orthogonalLoop=1;jettySize=auto;html=1;" parent="1" target="9OQMAJNurRfe3A98mxgL-36" edge="1">
          <mxGeometry relative="1" as="geometry">
            <mxPoint x="125" y="-1120" as="sourcePoint" />
          </mxGeometry>
        </mxCell>
        <mxCell id="9OQMAJNurRfe3A98mxgL-39" value="" style="edgeStyle=none;rounded=0;orthogonalLoop=1;jettySize=auto;html=1;" parent="1" source="9OQMAJNurRfe3A98mxgL-36" target="9OQMAJNurRfe3A98mxgL-38" edge="1">
          <mxGeometry relative="1" as="geometry" />
        </mxCell>
        <mxCell id="9OQMAJNurRfe3A98mxgL-36" value="Ligar o computador e conectá-lo" style="rounded=1;whiteSpace=wrap;html=1;strokeWidth=2;" parent="1" vertex="1">
          <mxGeometry x="65" y="-1100" width="120" height="60" as="geometry" />
        </mxCell>
        <mxCell id="9OQMAJNurRfe3A98mxgL-40" style="edgeStyle=none;rounded=0;orthogonalLoop=1;jettySize=auto;html=1;" parent="1" source="9OQMAJNurRfe3A98mxgL-38" edge="1">
          <mxGeometry relative="1" as="geometry">
            <mxPoint x="70" y="-970" as="targetPoint" />
          </mxGeometry>
        </mxCell>
        <mxCell id="9OQMAJNurRfe3A98mxgL-38" value="O computador Ligou e Conectou ?" style="rhombus;whiteSpace=wrap;html=1;rounded=1;strokeWidth=2;" parent="1" vertex="1">
          <mxGeometry x="10" y="-970" width="230" height="120" as="geometry" />
        </mxCell>
        <mxCell id="9OQMAJNurRfe3A98mxgL-44" value="" style="edgeStyle=none;rounded=0;orthogonalLoop=1;jettySize=auto;html=1;" parent="1" source="9OQMAJNurRfe3A98mxgL-43" edge="1">
          <mxGeometry relative="1" as="geometry">
            <mxPoint x="80" y="-1030" as="targetPoint" />
          </mxGeometry>
        </mxCell>
        <mxCell id="9OQMAJNurRfe3A98mxgL-43" value="&lt;font style=&quot;font-size: 18px;&quot;&gt;Não ?&lt;/font&gt;" style="text;html=1;align=center;verticalAlign=middle;resizable=0;points=[];autosize=1;strokeColor=none;fillColor=none;" parent="1" vertex="1">
          <mxGeometry x="20" y="-1000" width="70" height="40" as="geometry" />
        </mxCell>
        <mxCell id="9OQMAJNurRfe3A98mxgL-48" value="" style="edgeStyle=none;rounded=0;orthogonalLoop=1;jettySize=auto;html=1;entryX=-0.04;entryY=0.63;entryDx=0;entryDy=0;entryPerimeter=0;" parent="1" source="9OQMAJNurRfe3A98mxgL-45" target="9OQMAJNurRfe3A98mxgL-47" edge="1">
          <mxGeometry relative="1" as="geometry" />
        </mxCell>
        <mxCell id="9OQMAJNurRfe3A98mxgL-45" value="&lt;font style=&quot;font-size: 18px;&quot;&gt;Sim ?&lt;/font&gt;" style="text;html=1;align=center;verticalAlign=middle;resizable=0;points=[];autosize=1;strokeColor=none;fillColor=none;" parent="1" vertex="1">
          <mxGeometry x="160" y="-995" width="70" height="40" as="geometry" />
        </mxCell>
        <mxCell id="9OQMAJNurRfe3A98mxgL-50" value="" style="edgeStyle=none;rounded=0;orthogonalLoop=1;jettySize=auto;html=1;" parent="1" source="9OQMAJNurRfe3A98mxgL-47" target="9OQMAJNurRfe3A98mxgL-49" edge="1">
          <mxGeometry relative="1" as="geometry" />
        </mxCell>
        <mxCell id="9OQMAJNurRfe3A98mxgL-47" value="&lt;div style=&quot;&quot;&gt;&lt;span style=&quot;background-color: initial;&quot;&gt;Abra o Youtube e pesquise a música desejada&lt;/span&gt;&lt;/div&gt;" style="shape=manualInput;whiteSpace=wrap;html=1;align=center;" parent="1" vertex="1">
          <mxGeometry x="250" y="-1160" width="100" height="100" as="geometry" />
        </mxCell>
        <mxCell id="DkZNIjz2IbwcT309f4Qh-4" value="" style="edgeStyle=orthogonalEdgeStyle;rounded=0;orthogonalLoop=1;jettySize=auto;html=1;" edge="1" parent="1" source="9OQMAJNurRfe3A98mxgL-49" target="DkZNIjz2IbwcT309f4Qh-3">
          <mxGeometry relative="1" as="geometry" />
        </mxCell>
        <mxCell id="9OQMAJNurRfe3A98mxgL-49" value="&lt;div style=&quot;&quot;&gt;&lt;span style=&quot;background-color: initial;&quot;&gt;Fixe a aba que foi aberta com a música&lt;/span&gt;&lt;/div&gt;" style="shape=manualInput;whiteSpace=wrap;html=1;align=center;" parent="1" vertex="1">
          <mxGeometry x="390" y="-1150" width="120" height="90" as="geometry" />
        </mxCell>
        <mxCell id="9OQMAJNurRfe3A98mxgL-52" style="edgeStyle=none;rounded=0;orthogonalLoop=1;jettySize=auto;html=1;exitX=1;exitY=1;exitDx=0;exitDy=0;" parent="1" source="9OQMAJNurRfe3A98mxgL-38" target="9OQMAJNurRfe3A98mxgL-38" edge="1">
          <mxGeometry relative="1" as="geometry" />
        </mxCell>
        <mxCell id="DkZNIjz2IbwcT309f4Qh-9" value="" style="edgeStyle=orthogonalEdgeStyle;rounded=0;orthogonalLoop=1;jettySize=auto;html=1;exitX=0.5;exitY=0.8;exitDx=0;exitDy=0;exitPerimeter=0;" edge="1" parent="1" source="DkZNIjz2IbwcT309f4Qh-3" target="DkZNIjz2IbwcT309f4Qh-5">
          <mxGeometry relative="1" as="geometry" />
        </mxCell>
        <mxCell id="DkZNIjz2IbwcT309f4Qh-3" value="Toque a música&amp;nbsp;" style="shape=document;whiteSpace=wrap;html=1;boundedLbl=1;" vertex="1" parent="1">
          <mxGeometry x="390" y="-1035" width="120" height="80" as="geometry" />
        </mxCell>
        <mxCell id="DkZNIjz2IbwcT309f4Qh-5" value="&lt;font style=&quot;font-size: 18px;&quot;&gt;FIM&lt;/font&gt;" style="html=1;dashed=0;whiteSpace=wrap;shape=mxgraph.dfd.start" vertex="1" parent="1">
          <mxGeometry x="405" y="-930" width="90" height="40" as="geometry" />
        </mxCell>
        <mxCell id="DkZNIjz2IbwcT309f4Qh-6" value="&lt;font style=&quot;font-size: 18px;&quot;&gt;INICÍO&lt;/font&gt;" style="html=1;dashed=0;whiteSpace=wrap;shape=mxgraph.dfd.start" vertex="1" parent="1">
          <mxGeometry x="72.5" y="-1160" width="105" height="40" as="geometry" />
        </mxCell>
      </root>
    </mxGraphModel>
  </diagram>
</mxfile>
